<?xml version="1.0" standalone="no"?>
<!DOCTYPE svg PUBLIC "-//W3C//DTD SVG 20010904//EN"
 "http://www.w3.org/TR/2001/REC-SVG-20010904/DTD/svg10.dtd">
<svg version="1.0" xmlns="http://www.w3.org/2000/svg"
 width="47.000000pt" height="46.000000pt" viewBox="0 0 47.000000 46.000000"
 preserveAspectRatio="xMidYMid meet">

<g transform="translate(0.000000,46.000000) scale(0.100000,-0.100000)"
fill="#000000" stroke="none">
<path d="M16 444 c-24 -23 -24 -405 0 -428 23 -24 405 -24 428 0 16 15 17 33
17 294 0 115 0 118 -17 134 -23 24 -405 24 -428 0z m168 -21 c-4 -10 -6 -49
-5 -86 2 -66 2 -68 -18 -58 -31 17 -58 13 -81 -11 -23 -25 -26 -75 -7 -102 12
-16 14 -16 26 -2 8 9 26 16 41 16 28 0 28 0 24 -61 -3 -60 -3 -61 21 -55 13 3
27 1 30 -5 4 -6 14 -8 22 -5 9 4 22 1 29 -5 8 -6 20 -9 27 -6 7 2 26 -1 42 -8
26 -12 10 -13 -130 -14 -174 -1 -185 2 -185 51 0 27 2 28 58 30 l57 2 -57 3
-58 4 0 152 c0 106 4 157 12 165 7 7 42 12 86 12 67 0 73 -2 66 -17z m244 5
c21 -21 13 -26 -25 -16 -21 5 -58 13 -83 18 -43 7 -42 7 26 9 43 0 75 -4 82
-11z m-128 -70 c0 -10 -4 -18 -10 -18 -5 0 -10 -13 -10 -30 0 -27 -3 -30 -30
-30 -24 0 -30 4 -30 21 0 17 5 20 25 17 25 -5 34 5 15 17 -6 4 -7 11 -4 17 4
6 -2 6 -15 -1 -18 -10 -21 -9 -21 8 0 16 6 19 40 18 31 -2 40 -6 40 -19z m63
4 c17 -19 21 -122 5 -122 -5 0 -6 6 -2 13 5 7 0 6 -11 -3 -18 -14 -18 -15 3
-18 17 -3 22 -10 22 -33 0 -16 -4 -29 -9 -29 -6 0 -8 -9 -6 -19 4 -24 -12 -39
-53 -47 -38 -8 -45 12 -9 25 12 5 21 11 20 15 -2 3 -3 33 -3 66 0 52 2 60 18
58 10 -2 17 3 17 12 0 9 -7 14 -17 12 -11 -2 -18 3 -18 13 0 8 9 15 20 15 22
0 27 24 8 36 -8 5 -9 2 -5 -10 5 -13 2 -17 -11 -14 -9 2 -18 13 -20 26 -4 28
27 30 51 4z m-205 -104 c27 -27 3 -66 -32 -52 -8 3 -17 1 -21 -5 -11 -18 -25
-12 -25 11 0 44 50 74 78 46z m122 -31 c0 -32 -3 -37 -13 -28 -8 6 -17 8 -20
4 -9 -9 -9 -23 1 -22 4 1 14 1 22 0 13 -1 13 -2 0 -11 -12 -7 -12 -12 -2 -22
17 -17 15 -31 -4 -24 -12 4 -15 2 -10 -9 4 -10 -1 -15 -15 -15 -17 0 -18 3 -8
21 6 12 7 19 1 15 -6 -3 -10 21 -10 63 l0 68 29 0 c27 0 29 -3 29 -40z m149
-193 c-12 -14 -63 -20 -57 -6 2 4 17 35 33 69 l30 62 3 -55 c2 -32 -2 -62 -9
-70z"/>
<path d="M40 395 c0 -35 1 -36 33 -33 28 3 32 6 32 33 0 27 -4 30 -32 33 -32
3 -33 2 -33 -33z m46 -10 c-5 -14 -9 -15 -21 -5 -12 10 -13 16 -4 27 15 18 34
1 25 -22z"/>
</g>
</svg>
